<svg width="22" height="22" viewBox="0 0 22 22" fill="none" xmlns="http://www.w3.org/2000/svg">
<path d="M21 21.4998H14.999C14.8664 21.4998 14.7392 21.4471 14.6454 21.3534C14.5517 21.2596 14.499 21.1324 14.499 20.9998V15.5492C14.5068 15.0863 14.4227 14.6264 14.2513 14.1962C14.0794 13.7646 13.8232 13.3715 13.4977 13.04C13.1722 12.7085 12.7839 12.4452 12.3555 12.2654C11.9271 12.0856 11.4671 11.9931 11.0025 11.9931C10.5379 11.9931 10.0779 12.0856 9.64952 12.2654C9.22109 12.4452 8.83278 12.7085 8.50727 13.04C8.18175 13.3715 7.92556 13.7646 7.75366 14.1962C7.58235 14.6264 7.49817 15.0863 7.506 15.5492V20.9998C7.506 21.1324 7.45332 21.2596 7.35955 21.3534C7.26579 21.4471 7.13861 21.4998 7.006 21.4998H1C0.867391 21.4998 0.740214 21.4471 0.646447 21.3534C0.552679 21.2596 0.5 21.1324 0.5 20.9998V10.543C0.500065 10.4752 0.513849 10.4082 0.540523 10.3459C0.567195 10.2836 0.606201 10.2273 0.655191 10.1805C0.655231 10.1805 0.65527 10.1805 0.655309 10.1804L10.6547 0.638043C10.6547 0.63798 10.6548 0.637918 10.6549 0.637855C10.748 0.549353 10.8715 0.5 11 0.5C11.1285 0.5 11.252 0.549353 11.3451 0.637855C11.3452 0.637918 11.3453 0.63798 11.3453 0.638043L21.3447 10.1804C21.3937 10.2273 21.4328 10.2835 21.4595 10.3459C21.4862 10.4082 21.5 10.4753 21.5 10.5431V20.9998C21.5 21.1324 21.4473 21.2596 21.3536 21.3534C21.2598 21.4471 21.1326 21.4998 21 21.4998Z" fill="#FAFAFA" stroke="black"/>
</svg>
