<svg width="24" height="24" viewBox="0 0 24 24" fill="none" xmlns="http://www.w3.org/2000/svg">
<path d="M22.9091 23H16.3625C16.3384 23 16.3153 22.9904 16.2983 22.9734C16.2812 22.9563 16.2716 22.9332 16.2716 22.9091V16.9666C16.2806 16.4028 16.1779 15.8427 15.9692 15.3187C15.7593 14.7917 15.4466 14.3119 15.0491 13.9071C14.6517 13.5024 14.1776 13.1809 13.6546 12.9614C13.1315 12.742 12.57 12.6289 12.0027 12.6289C11.4355 12.6289 10.8739 12.742 10.3509 12.9614C9.82782 13.1809 9.35373 13.5024 8.95632 13.9071C8.5589 14.3119 8.24612 14.7918 8.03625 15.3187C7.82758 15.8427 7.7248 16.4028 7.73382 16.9666V22.9091C7.73382 22.9332 7.72424 22.9563 7.70719 22.9734C7.69014 22.9904 7.66702 23 7.64291 23H1.09091C1.0668 23 1.04368 22.9904 1.02663 22.9734C1.00958 22.9563 1 22.9332 1 22.9091V11.5019C1.00003 11.4893 1.00259 11.4769 1.00752 11.4654C1.01246 11.4539 1.01969 11.4435 1.02876 11.4348C1.02878 11.4348 1.02879 11.4347 1.0288 11.4347L11.9366 1.02535C11.9367 1.02528 11.9367 1.02521 11.9368 1.02514C11.9539 1.009 11.9765 1 12 1C12.0235 1 12.0461 1.009 12.0632 1.02514C12.0633 1.02521 12.0633 1.02528 12.0634 1.02535L22.9712 11.4347C22.9803 11.4434 22.9875 11.4539 22.9925 11.4654C22.9974 11.477 23 11.4894 23 11.502V22.9091C23 22.9332 22.9904 22.9563 22.9734 22.9734C22.9563 22.9904 22.9332 23 22.9091 23Z" fill="#FAFAFA" stroke="black" stroke-width="2"/>
</svg>
