<svg width="24" height="24" viewBox="0 0 24 24" fill="none" xmlns="http://www.w3.org/2000/svg">
<path d="M0 11.6404C0 4.95167 5.2395 0 12 0C18.7605 0 24 4.95167 24 11.6404C24 18.3291 18.7605 23.2808 12 23.2808C10.785 23.2808 9.621 23.1203 8.526 22.8203C8.31368 22.7612 8.08748 22.7771 7.8855 22.8653L5.5035 23.9183C5.35964 23.9818 5.20239 24.009 5.04558 23.9974C4.88876 23.9859 4.73719 23.936 4.60417 23.8521C4.47115 23.7683 4.36076 23.6531 4.2827 23.5166C4.20464 23.3801 4.16131 23.2265 4.1565 23.0693L4.0905 20.9347C4.08594 20.8048 4.055 20.6772 3.99956 20.5596C3.94411 20.442 3.86533 20.3369 3.768 20.2507C1.434 18.1626 0 15.1385 0 11.6404ZM8.319 9.45183L4.794 15.044C4.4565 15.581 5.115 16.1856 5.6205 15.8031L9.408 12.929C9.53257 12.8343 9.68457 12.7829 9.841 12.7823C9.99743 12.7818 10.1498 12.8322 10.275 12.926L13.0785 15.029C13.2774 15.1782 13.5051 15.2845 13.7471 15.3414C13.9892 15.3982 14.2404 15.4042 14.4849 15.3591C14.7294 15.314 14.9619 15.2188 15.1678 15.0793C15.3736 14.9399 15.5484 14.7593 15.681 14.549L19.206 8.95681C19.545 8.41979 18.885 7.81527 18.3795 8.19779L14.592 11.0719C14.4674 11.1665 14.3154 11.218 14.159 11.2185C14.0026 11.2191 13.8502 11.1686 13.725 11.0749L10.9215 8.97031C10.7226 8.82114 10.4949 8.7148 10.2529 8.65799C10.0108 8.60117 9.75961 8.59513 9.51511 8.64022C9.2706 8.68532 9.03808 8.78059 8.83222 8.92002C8.62636 9.05944 8.45161 9.24001 8.319 9.45033V9.45183Z" fill="black"/>
</svg>
