<svg width="24" height="20" viewBox="0 0 24 20" fill="none" xmlns="http://www.w3.org/2000/svg">
<mask id="path-1-inside-1_1_505" fill="white">
<path d="M16.9986 1.98372C18.3697 2.05569 19.6552 2.63923 20.5751 3.60718C21.495 4.57513 21.9747 5.84903 21.9095 7.15127C21.9095 10.1936 19.1432 12.0623 16.4885 14.3034C13.8682 16.5247 12.4569 17.7389 12 18.0192C11.5024 17.7131 9.76462 16.2138 7.5115 14.3034C4.84532 12.0534 2.09047 10.1668 2.09047 7.15127C2.02534 5.84903 2.50498 4.57513 3.42487 3.60718C4.34476 2.63923 5.63033 2.05569 7.00142 1.98372C7.76096 1.96187 8.51347 2.1275 9.18539 2.46443C9.85732 2.80136 10.4257 3.29805 10.8348 3.90596C11.7111 5.06959 11.8571 5.65191 12.0031 5.65191C12.1492 5.65191 12.2931 5.06959 13.161 3.90299C13.5679 3.29227 14.1364 2.79361 14.8098 2.45682C15.4832 2.12003 16.238 1.9569 16.9986 1.98372ZM16.9986 0.0030637C16.0514 -0.0257284 15.1095 0.148725 14.2432 0.513432C13.3768 0.878139 12.6083 1.4237 11.9948 2.1095C11.3818 1.4257 10.6149 0.881395 9.75059 0.5168C8.8863 0.152204 7.94677 -0.0233651 7.00142 0.0030637C5.07675 0.0745179 3.26019 0.866615 1.94896 2.20615C0.637727 3.54568 -0.0614744 5.32365 0.00424727 7.15127C0.00424727 10.7264 2.66417 12.9219 5.23544 15.0442C5.53064 15.2878 5.82897 15.5334 6.12521 15.784L7.19648 16.6931C8.36481 17.7486 9.58965 18.7462 10.8661 19.6819C11.2039 19.8895 11.5976 20 12 20C12.4024 20 12.7961 19.8895 13.1339 19.6819C14.451 18.7176 15.7135 17.6879 16.9162 16.597L17.8779 15.781C18.1836 15.5235 18.4934 15.267 18.8011 15.0145C21.2357 13.0091 23.9958 10.7363 23.9958 7.15127C24.0615 5.32365 23.3623 3.54568 22.051 2.20615C20.7398 0.866615 18.9232 0.0745179 16.9986 0.0030637Z"/>
</mask>
<path d="M16.9986 1.98372C18.3697 2.05569 19.6552 2.63923 20.5751 3.60718C21.495 4.57513 21.9747 5.84903 21.9095 7.15127C21.9095 10.1936 19.1432 12.0623 16.4885 14.3034C13.8682 16.5247 12.4569 17.7389 12 18.0192C11.5024 17.7131 9.76462 16.2138 7.5115 14.3034C4.84532 12.0534 2.09047 10.1668 2.09047 7.15127C2.02534 5.84903 2.50498 4.57513 3.42487 3.60718C4.34476 2.63923 5.63033 2.05569 7.00142 1.98372C7.76096 1.96187 8.51347 2.1275 9.18539 2.46443C9.85732 2.80136 10.4257 3.29805 10.8348 3.90596C11.7111 5.06959 11.8571 5.65191 12.0031 5.65191C12.1492 5.65191 12.2931 5.06959 13.161 3.90299C13.5679 3.29227 14.1364 2.79361 14.8098 2.45682C15.4832 2.12003 16.238 1.9569 16.9986 1.98372ZM16.9986 0.0030637C16.0514 -0.0257284 15.1095 0.148725 14.2432 0.513432C13.3768 0.878139 12.6083 1.4237 11.9948 2.1095C11.3818 1.4257 10.6149 0.881395 9.75059 0.5168C8.8863 0.152204 7.94677 -0.0233651 7.00142 0.0030637C5.07675 0.0745179 3.26019 0.866615 1.94896 2.20615C0.637727 3.54568 -0.0614744 5.32365 0.00424727 7.15127C0.00424727 10.7264 2.66417 12.9219 5.23544 15.0442C5.53064 15.2878 5.82897 15.5334 6.12521 15.784L7.19648 16.6931C8.36481 17.7486 9.58965 18.7462 10.8661 19.6819C11.2039 19.8895 11.5976 20 12 20C12.4024 20 12.7961 19.8895 13.1339 19.6819C14.451 18.7176 15.7135 17.6879 16.9162 16.597L17.8779 15.781C18.1836 15.5235 18.4934 15.267 18.8011 15.0145C21.2357 13.0091 23.9958 10.7363 23.9958 7.15127C24.0615 5.32365 23.3623 3.54568 22.051 2.20615C20.7398 0.866615 18.9232 0.0745179 16.9986 0.0030637Z" fill="#262626"/>
<path d="M16.9986 1.98372L17.1558 -1.01215L17.1301 -1.0135L17.1043 -1.01441L16.9986 1.98372ZM21.9095 7.15127L18.9133 7.00143L18.9095 7.0763V7.15127H21.9095ZM16.4885 14.3034L14.5533 12.0111L14.5486 12.0151L16.4885 14.3034ZM12 18.0192L10.4284 20.5745L11.998 21.5399L13.5687 20.5764L12 18.0192ZM7.5115 14.3034L9.45162 12.0152L9.44633 12.0107L7.5115 14.3034ZM2.09047 7.15127H5.09047V7.0763L5.08672 7.00143L2.09047 7.15127ZM7.00142 1.98372L6.91514 -1.01503L6.87964 -1.01401L6.84418 -1.01215L7.00142 1.98372ZM10.8348 3.90596L8.34614 5.58117L8.39051 5.64708L8.4383 5.71054L10.8348 3.90596ZM13.161 3.90299L15.568 5.69361L15.6145 5.63113L15.6576 5.56633L13.161 3.90299ZM16.9986 0.0030637L17.1099 -2.99487L17.0998 -2.99525L17.0897 -2.99555L16.9986 0.0030637ZM11.9948 2.1095L9.76091 4.11195L11.9971 6.60656L14.2307 4.10966L11.9948 2.1095ZM7.00142 0.0030637L6.91759 -2.99576L6.90385 -2.99538L6.89012 -2.99487L7.00142 0.0030637ZM0.00424727 7.15127H3.00425V7.09735L3.00231 7.04346L0.00424727 7.15127ZM5.23544 15.0442L3.32576 17.3579L3.32591 17.358L5.23544 15.0442ZM6.12521 15.784L8.06635 13.4966L8.06253 13.4934L6.12521 15.784ZM7.19648 16.6931L9.20756 14.467L9.17306 14.4358L9.13762 14.4058L7.19648 16.6931ZM10.8661 19.6819L9.09246 22.1014L9.191 22.1737L9.29508 22.2377L10.8661 19.6819ZM13.1339 19.6819L14.7049 22.2377L14.8082 22.1741L14.9061 22.1025L13.1339 19.6819ZM16.9162 16.597L14.9752 14.3095L14.9374 14.3416L14.9007 14.3749L16.9162 16.597ZM17.8779 15.781L15.945 13.4867L15.937 13.4935L17.8779 15.781ZM18.8011 15.0145L20.7042 17.3335L20.7084 17.3301L18.8011 15.0145ZM23.9958 7.15127L20.9977 7.04346L20.9958 7.09735V7.15127H23.9958ZM16.8413 4.9796C17.4698 5.01259 18.0257 5.27948 18.4005 5.67382L22.7497 1.54053C21.2847 -0.00102396 19.2695 -0.901213 17.1558 -1.01215L16.8413 4.9796ZM18.4005 5.67382C18.7701 6.06275 18.9363 6.54141 18.9133 7.00143L24.9058 7.30111C25.013 5.15665 24.2199 3.08751 22.7497 1.54053L18.4005 5.67382ZM18.9095 7.15127C18.9095 7.64701 18.7224 8.18598 17.9731 9.01159C17.128 9.9427 16.0626 10.7369 14.5533 12.0111L18.4237 16.5958C19.5691 15.6289 21.2142 14.3681 22.416 13.044C23.7135 11.6144 24.9095 9.69782 24.9095 7.15127H18.9095ZM14.5486 12.0151C13.2277 13.1348 12.2359 13.98 11.5093 14.5871C10.6963 15.2665 10.4274 15.4644 10.4313 15.462L13.5687 20.5764C14.0295 20.2937 14.6947 19.7444 15.3566 19.1913C16.105 18.5659 17.129 17.6933 18.4284 16.5918L14.5486 12.0151ZM13.5716 15.4638C13.6229 15.4953 13.5533 15.4534 13.2742 15.2311C13.0355 15.0411 12.7236 14.7841 12.3404 14.4631C11.5711 13.8187 10.5921 12.9822 9.45162 12.0152L5.57139 16.5917C6.68399 17.535 7.70053 18.4034 8.48776 19.0628C9.18151 19.6438 9.94516 20.2774 10.4284 20.5745L13.5716 15.4638ZM9.44633 12.0107C7.94046 10.7399 6.86785 9.93264 6.02602 9.00196C5.27351 8.17004 5.09047 7.63253 5.09047 7.15127H-0.909535C-0.909535 9.68557 0.284842 11.5991 1.57631 13.0269C2.77845 14.3559 4.41636 15.6169 5.57667 16.5961L9.44633 12.0107ZM5.08672 7.00143C5.06372 6.54141 5.22988 6.06275 5.59949 5.67382L1.25025 1.54053C-0.21991 3.08751 -1.01303 5.15665 -0.90579 7.30111L5.08672 7.00143ZM5.59949 5.67382C5.97426 5.27948 6.53016 5.01259 7.15866 4.9796L6.84418 -1.01215C4.73049 -0.901213 2.71526 -0.00102444 1.25025 1.54053L5.59949 5.67382ZM7.08771 4.98248C7.357 4.97474 7.61721 5.03412 7.84066 5.14617L10.5301 -0.217304C9.40973 -0.779114 8.16491 -1.05099 6.91514 -1.01503L7.08771 4.98248ZM7.84066 5.14617C8.06341 5.25786 8.23295 5.41302 8.34614 5.58117L13.3236 2.23074C12.6184 1.18309 11.6512 0.34486 10.5301 -0.217304L7.84066 5.14617ZM8.4383 5.71054C8.77117 6.15261 8.95513 6.46829 9.08032 6.69006C9.11014 6.74289 9.25392 7.00626 9.37658 7.19256C9.43945 7.28804 9.61969 7.55868 9.91036 7.82742C10.2005 8.09569 10.9163 8.65191 12.0031 8.65191V2.65191C13.0535 2.65191 13.7327 3.18993 13.9835 3.42181C14.1235 3.55119 14.2203 3.66726 14.2743 3.73598C14.3307 3.80765 14.3692 3.8647 14.3878 3.89292C14.4202 3.94218 14.4333 3.96746 14.407 3.92134C14.3765 3.86766 14.3637 3.84395 14.3053 3.74054C14.1019 3.38024 13.7747 2.82294 13.2314 2.10137L8.4383 5.71054ZM12.0031 8.65191C13.0916 8.65191 13.8083 8.09426 14.1002 7.8233C14.3918 7.55267 14.5719 7.28021 14.6349 7.18393C14.758 6.99549 14.9005 6.73149 14.9307 6.67758C15.0555 6.45408 15.238 6.13724 15.568 5.69361L10.754 2.11236C10.2161 2.83534 9.89273 3.39296 9.69208 3.75228C9.63552 3.85356 9.62095 3.88066 9.592 3.93198C9.56624 3.97763 9.57956 3.95165 9.61236 3.90146C9.6277 3.878 9.76588 3.66014 10.0182 3.42592C10.2709 3.19136 10.9512 2.65191 12.0031 2.65191V8.65191ZM15.6576 5.56633C15.7671 5.40196 15.9327 5.2495 16.1517 5.13997L13.4679 -0.226334C12.3401 0.337717 11.3686 1.18258 10.6643 2.23964L15.6576 5.56633ZM16.1517 5.13997C16.3715 5.03007 16.6278 4.97251 16.8928 4.98186L17.1043 -1.01441C15.8481 -1.05872 14.595 -0.790018 13.4679 -0.226334L16.1517 5.13997ZM17.0897 -2.99555C15.7158 -3.03731 14.3456 -2.78469 13.0792 -2.25156L15.4071 3.27842C15.8734 3.08214 16.3869 2.98586 16.9074 3.00168L17.0897 -2.99555ZM13.0792 -2.25156C11.8124 -1.71828 10.6751 -0.914937 9.75886 0.109338L14.2307 4.10966C14.5414 3.76234 14.9412 3.47456 15.4071 3.27842L13.0792 -2.25156ZM14.2287 0.107043C13.3138 -0.913527 12.1796 -1.71452 10.9166 -2.24732L8.58455 3.28092C9.0501 3.47731 9.44984 3.76493 9.76091 4.11195L14.2287 0.107043ZM10.9166 -2.24732C9.65394 -2.77998 8.28792 -3.03407 6.91759 -2.99576L7.08526 3.00189C7.60563 2.98734 8.11866 3.08439 8.58455 3.28092L10.9166 -2.24732ZM6.89012 -2.99487C4.2212 -2.89579 1.66989 -1.79743 -0.194891 0.107596L4.0928 4.3047C4.85049 3.53066 5.93231 3.04482 7.11272 3.001L6.89012 -2.99487ZM-0.194891 0.107596C-2.06488 2.01794 -3.0899 4.58716 -2.99381 7.25908L3.00231 7.04346C2.96695 6.06014 3.34033 5.07342 4.0928 4.3047L-0.194891 0.107596ZM-2.99575 7.15127C-2.99575 12.3681 0.999413 15.4378 3.32576 17.3579L7.14512 12.7305C4.32894 10.4061 3.00425 9.08459 3.00425 7.15127H-2.99575ZM3.32591 17.358C3.62622 17.6059 3.90858 17.8383 4.1879 18.0746L8.06253 13.4934C7.74935 13.2285 7.43505 12.9698 7.14497 12.7304L3.32591 17.358ZM4.18407 18.0713L5.25535 18.9805L9.13762 14.4058L8.06635 13.4966L4.18407 18.0713ZM5.18541 18.9192C6.42992 20.0435 7.73403 21.1056 9.09246 22.1014L12.6398 17.2624C11.4453 16.3867 10.2997 15.4536 9.20756 14.467L5.18541 18.9192ZM9.29508 22.2377C10.1127 22.7403 11.0517 23 12 23V17C12.1436 17 12.295 17.0388 12.4372 17.1262L9.29508 22.2377ZM12 23C12.9483 23 13.8873 22.7403 14.7049 22.2377L11.5628 17.1262C11.705 17.0388 11.8564 17 12 17V23ZM14.9061 22.1025C16.3072 21.0767 17.651 19.9807 18.9317 18.8192L14.9007 14.3749C13.776 15.395 12.5947 16.3585 11.3616 17.2613L14.9061 22.1025ZM18.8571 18.8846L19.8189 18.0685L15.937 13.4935L14.9752 14.3095L18.8571 18.8846ZM19.8108 18.0753C20.1036 17.8287 20.4029 17.5808 20.7042 17.3335L16.8979 12.6955C16.5838 12.9533 16.2635 13.2184 15.945 13.4867L19.8108 18.0753ZM20.7084 17.3301C22.8932 15.5304 26.9958 12.3821 26.9958 7.15127H20.9958C20.9958 9.09048 19.5781 10.4877 16.8937 12.6989L20.7084 17.3301ZM26.9938 7.25908C27.0899 4.58716 26.0649 2.01794 24.1949 0.107596L19.9072 4.3047C20.6597 5.07342 21.0331 6.06014 20.9977 7.04346L26.9938 7.25908ZM24.1949 0.107596C22.3301 -1.79743 19.7788 -2.89579 17.1099 -2.99487L16.8873 3.001C18.0677 3.04482 19.1495 3.53066 19.9072 4.3047L24.1949 0.107596Z" fill="black" mask="url(#path-1-inside-1_1_505)"/>
</svg>
