<svg width="24" height="24" viewBox="0 0 24 24" fill="none" xmlns="http://www.w3.org/2000/svg">
<path fill-rule="evenodd" clip-rule="evenodd" d="M12.7948 3.1925H10.4287L11.7554 5.15373L14.0813 5.12293L12.7948 3.1925ZM3.95196 5.25704C4.65256 4.29257 5.68943 3.58819 6.89038 3.31607L8.16567 5.20125L3.95196 5.25704ZM16.411 3.20915L17.6548 5.07562L19.8861 5.04608C19.0502 4.01501 17.8123 3.32316 16.411 3.20915ZM3 16V8.26991L20.9975 8.03163C20.9991 8.08504 21 8.13868 21 8.1925V16C21 18.7614 18.7614 21 16 21H8C5.23858 21 3 18.7614 3 16ZM24 8.1925C24 7.1123 23.7859 6.0821 23.3978 5.14203L23.3959 4.99961L23.3378 5.00038C22.1051 2.17073 19.2836 0.192505 16 0.192505H8C3.58172 0.192505 0 3.77423 0 8.1925V16C0 20.4183 3.58172 24 8 24H16C20.4183 24 24 20.4183 24 16V8.1925ZM15.6297 15.576C16.2942 15.1814 16.2789 14.2143 15.6022 13.8407L11.0668 11.3366C10.3942 10.9653 9.57158 11.4595 9.58376 12.2276L9.66537 17.3759C9.67754 18.1441 10.5154 18.6124 11.1759 18.2202L15.6297 15.576Z" fill="#262626"/>
</svg>
