<svg width="97" height="78" viewBox="0 0 97 78" fill="none" xmlns="http://www.w3.org/2000/svg">
<path d="M16.5329 24.5901H16.828C19.5821 24.3934 21.6477 22.0327 21.5493 19.2786C21.3526 16.5245 18.992 14.459 16.2379 14.5573C13.4838 14.6557 11.4182 17.1147 11.5166 19.8688C11.6149 22.5245 13.8772 24.5901 16.5329 24.5901ZM14.1723 17.5081C14.6641 16.918 15.451 16.5245 16.2379 16.5245H16.4346C18.1067 16.5245 19.4838 17.9016 19.4838 19.5737C19.4838 21.2459 18.1067 22.6229 16.4346 22.6229C14.7625 22.6229 13.3854 21.2459 13.3854 19.5737C13.3854 18.7868 13.6805 18.0983 14.1723 17.5081Z" fill="#262626"/>
<path d="M83.8117 19.082L57.5494 17.6066L57.3527 14.6558C57.0576 9.04922 52.2379 4.72135 46.533 5.01643L13.1887 6.88529C7.58218 7.18037 3.25431 12.0984 3.54939 17.705L5.41825 51.1476V51.9345C6.10677 57.0492 10.4346 60.8853 15.5494 60.8853H16.1396L37.4838 59.705V60.2951C37.1887 65.9017 41.4183 70.8197 47.1232 71.1148L80.5658 73.082H81.156C86.5658 73.082 91.0904 68.8525 91.3855 63.4427L93.3527 30C93.7461 24.2951 89.4183 19.4755 83.8117 19.082ZM7.58218 11.6066C9.05759 9.93447 11.1232 8.95086 13.2871 8.8525L46.7297 6.98365C51.2543 6.68857 55.1887 10.2295 55.4838 14.7541L55.6805 17.5082L50.4674 17.2132C44.8609 16.9181 39.9428 21.1476 39.6478 26.8525L39.0576 36.1968L29.7133 46.7214C29.5166 47.0164 29.1232 47.1148 28.7297 47.2132C28.3363 47.2132 28.0412 47.1148 27.7461 46.8197L20.074 39.9345C18.6969 38.6558 16.6314 38.8525 15.3527 40.2296L7.38546 49.1804L5.61497 17.705C5.41825 15.4427 6.20513 13.2787 7.58218 11.6066ZM16.1396 58.8197C11.91 59.0164 8.17234 56.0656 7.48382 51.8361L16.7297 41.5082C16.9264 41.2132 17.3199 41.1148 17.7133 41.0164C18.1068 41.0164 18.4019 41.1148 18.6969 41.4099L26.3691 48.2951C27.0576 48.8853 27.9428 49.1804 28.8281 49.1804C29.7133 49.1804 30.5002 48.6886 31.0904 48.0984L38.7625 39.4427L37.6805 57.7378L16.1396 58.8197ZM91.3855 29.8033L89.4183 63.2459C89.1232 67.7705 85.1887 71.3115 80.6642 71.0164L47.2215 69.0492C42.6969 68.7541 39.156 64.8197 39.451 60.2951L41.4182 26.8525C41.7133 22.5246 45.2543 19.082 49.6805 19.082H50.1723L83.615 21.0492C88.2379 21.3443 91.6805 25.2787 91.3855 29.8033Z" fill="#262626"/>
<path d="M77.4178 41.9016L60.7948 30.9836C58.7293 29.6065 55.9752 30.1967 54.6965 32.2623C54.303 32.9508 54.008 33.6393 54.008 34.4262L52.8276 54.1967C52.7293 56.6557 54.4998 58.7213 56.9588 58.918H57.2539C57.9424 58.918 58.6309 58.7213 59.2211 58.4262L76.926 49.5738C79.0899 48.4918 79.9752 45.8361 78.8932 43.6721C78.4998 42.9836 78.008 42.3934 77.4178 41.9016ZM76.0408 47.8033L58.3358 56.6557C57.9424 56.8524 57.5489 56.9508 57.0571 56.9508C56.6637 56.9508 56.1719 56.7541 55.8768 56.5574C55.1883 56.0656 54.6965 55.2787 54.7948 54.3934L55.9752 34.6229C56.0735 33.7377 56.5653 32.9508 57.3522 32.5574C58.1391 32.1639 59.0244 32.2623 59.8112 32.6557L76.2375 43.5738C77.4178 44.3606 77.7129 45.8361 76.926 46.918C76.7293 47.3115 76.4342 47.6065 76.0408 47.8033Z" fill="#262626"/>
</svg>
